# xmcd
#
# Track frame offsets: 
#        150
#        34365
#        63272
#        104960
#        118970
#        153845
#        168742
#        201640
#        215482
#
# Disc length: 3759 seconds
#
# Revision: 4
# Processed by: cddbd v1.5.1PL0 Copyright (c) Steve Scherf et al.
# Submitted via: ExactAudioCopy v0.90a11
#
DISCID=910ead09
DTITLE=Mustafa Kandirali and Ensemble - Caz Roman
DYEAR=1992
DGENRE=World Music
TTITLE0=Nihavent Longa
TTITLE1=Üsküdara Gideriken
TTITLE2=Nihavent Oryental
TTITLE3=Taksim (Oud Solo)
TTITLE4=Kandira Karsilamasi
TTITLE5=Hicaz Taksimi (Kanoun Solo)
TTITLE6=Mastika
TTITLE7=Caz Roman
TTITLE8=Collection Of Dancetunes
EXTD=YEAR: 1992
EXTT0=
EXTT1=
EXTT2=
EXTT3=
EXTT4=
EXTT5=
EXTT6=
EXTT7=
EXTT8=
PLAYORDER=
